<?xml version="1.0" standalone="no"?>
<!DOCTYPE svg PUBLIC "-//W3C//DTD SVG 20010904//EN"
 "http://www.w3.org/TR/2001/REC-SVG-20010904/DTD/svg10.dtd">
<svg version="1.0" xmlns="http://www.w3.org/2000/svg"
 width="511.000000pt" height="511.000000pt" viewBox="0 0 511.000000 511.000000"
 preserveAspectRatio="xMidYMid meet">
<metadata>
Created by potrace 1.11, written by Peter Selinger 2001-2013
</metadata>
<g transform="translate(0.000000,511.000000) scale(0.100000,-0.100000)"
fill="#000000" stroke="none">
<path d="M2391 5016 c-26 -31 -87 -55 -122 -47 -86 18 -158 -2 -249 -69 -49
-37 -130 -120 -130 -135 0 -15 -26 -38 -48 -42 -10 -1 -34 -6 -54 -9 -21 -3
-38 -10 -38 -14 0 -5 10 -6 23 -4 l22 5 -23 -10 c-12 -6 -28 -8 -36 -5 -17 7
-97 -42 -93 -57 1 -6 -4 -14 -12 -17 -9 -3 -11 0 -6 9 13 23 -35 -21 -100 -90
-33 -34 -88 -102 -121 -149 -52 -72 -62 -92 -62 -129 -1 -24 -4 -48 -7 -53 -7
-11 -14 -78 -16 -162 -1 -38 -5 -68 -10 -68 -4 0 1 -25 11 -55 11 -31 19 -79
18 -108 -1 -76 21 -402 32 -472 6 -33 14 -121 20 -195 14 -205 19 -237 55
-340 39 -113 97 -238 102 -223 2 6 -3 47 -13 90 -21 97 -31 293 -14 293 7 0 9
12 4 36 -5 25 -3 35 4 30 7 -4 9 4 6 23 -4 21 1 36 15 50 12 12 17 21 11 21
-6 0 -5 10 2 25 6 14 18 25 26 25 11 0 8 6 -8 20 -13 11 -17 20 -10 20 7 0 10
7 6 15 -3 9 1 18 9 21 8 4 15 12 15 20 0 8 8 14 19 14 10 0 23 6 29 13 8 10 6
13 -11 14 -12 1 -24 -3 -28 -9 -4 -6 -12 -9 -19 -6 -6 2 1 10 16 18 34 18 64
46 64 61 0 5 5 7 11 3 8 -4 9 1 4 16 -6 19 -4 22 9 17 10 -4 16 -1 16 8 0 8
-6 15 -12 15 -10 0 -9 3 1 9 10 7 11 13 1 31 -6 12 -9 24 -6 28 3 3 6 0 6 -7
0 -7 4 -9 10 -6 6 4 6 12 -1 23 -9 14 -5 28 15 65 21 37 24 47 11 47 -8 0 -15
5 -15 11 0 5 5 7 12 3 8 -5 9 -2 5 10 -4 10 1 24 13 36 11 11 20 27 20 36 0 8
4 13 10 9 5 -3 7 -13 4 -23 -4 -10 -3 -13 3 -6 4 6 15 13 23 16 8 2 15 13 15
23 0 10 6 20 14 23 8 3 11 0 7 -6 -4 -7 3 -8 25 -2 18 5 35 7 39 5 4 -2 22 7
40 20 19 14 28 25 20 25 -7 0 -21 -7 -31 -15 -11 -11 -26 -14 -43 -9 -29 7
-34 19 -10 28 10 4 13 2 8 -6 -5 -8 -2 -9 10 -5 10 4 21 7 24 7 4 0 0 4 -8 9
-9 7 7 9 48 7 34 -1 62 2 62 6 0 4 11 7 24 6 28 -3 25 -16 -12 -66 -18 -25
-21 -37 -13 -45 8 -8 11 -6 11 7 0 9 5 14 10 11 6 -4 9 -1 8 5 -2 7 5 14 15
15 21 4 77 62 68 71 -3 4 -1 4 6 1 16 -10 43 3 43 20 0 10 9 13 28 11 15 -2
26 -8 25 -15 -2 -7 2 -13 7 -13 6 0 10 9 10 20 0 17 -7 20 -42 21 l-43 2 35 6
c20 4 41 3 49 -3 10 -8 15 -8 18 1 6 16 74 38 82 27 3 -5 17 -10 30 -12 31 -3
39 -11 22 -21 -9 -6 -3 -10 19 -13 19 -3 34 0 36 7 3 6 17 10 34 7 17 -2 30 0
30 5 0 6 10 9 23 9 12 -1 29 4 38 11 16 14 49 8 49 -8 0 -5 7 -9 16 -9 10 0
14 6 10 15 -3 8 -4 15 -3 15 1 0 18 -4 36 -10 24 -7 39 -6 47 1 10 8 18 7 30
-6 12 -11 19 -13 24 -5 5 8 10 7 18 -3 6 -7 34 -19 62 -27 27 -7 50 -17 50
-21 0 -3 14 -12 30 -19 17 -7 30 -16 30 -20 0 -4 11 -7 25 -7 30 0 46 -13 26
-21 -9 -3 -3 -9 16 -17 24 -10 30 -18 28 -39 -3 -26 10 -36 18 -13 2 6 7 -3
11 -20 4 -18 14 -33 22 -33 8 0 14 -4 14 -10 0 -5 6 -10 13 -10 14 0 50 -45
53 -67 2 -9 7 -19 13 -23 6 -3 12 -26 14 -51 1 -24 7 -47 12 -51 6 -5 5 -8 -2
-8 -7 0 -10 -7 -6 -17 5 -12 3 -14 -7 -8 -8 5 -11 3 -8 -6 3 -8 10 -13 15 -12
5 1 9 -8 8 -20 -2 -30 15 -56 33 -49 10 3 13 1 8 -6 -4 -7 -2 -12 6 -12 10 0
14 -25 16 -98 3 -91 12 -125 29 -108 4 4 3 15 -2 24 -13 22 -13 102 0 101 5 0
12 8 16 18 4 13 8 6 13 -24 4 -23 14 -47 22 -53 7 -7 16 -28 20 -49 4 -20 11
-41 16 -48 5 -7 7 -16 4 -22 -3 -5 -2 -11 4 -13 5 -1 12 -34 15 -72 3 -38 8
-72 10 -76 8 -13 8 -102 0 -194 -6 -65 -5 -87 4 -82 6 4 9 17 5 29 -3 14 2 31
14 45 24 28 30 28 34 0 3 -22 3 -22 21 5 10 15 14 27 10 26 -21 -3 -22 3 -5
21 13 14 18 31 15 54 -2 23 1 36 12 40 18 6 20 48 4 78 -9 16 -8 19 2 16 17
-6 45 50 53 107 4 25 11 45 15 45 17 0 10 79 -9 102 -35 45 -10 130 68 235 13
18 21 37 17 43 -3 5 -2 10 4 10 6 0 15 17 20 38 8 32 31 182 34 220 0 6 3 12
6 12 10 0 5 108 -7 180 -6 36 -16 103 -22 150 -15 119 -30 168 -62 216 -15 23
-28 48 -28 55 0 18 -53 119 -97 186 -19 29 -62 74 -96 101 -34 27 -84 71 -112
97 -74 71 -125 110 -174 135 -56 28 -128 50 -165 50 -16 0 -44 11 -62 25 -34
26 -75 32 -117 16 -14 -6 -51 -13 -84 -16 -56 -7 -60 -5 -118 34 -41 28 -71
41 -95 41 -19 1 -46 7 -60 15 -32 19 -84 19 -99 1z m-321 -1066 c0 -5 -5 -10
-11 -10 -5 0 -7 5 -4 10 3 6 8 10 11 10 2 0 4 -4 4 -10z m670 -24 c0 -3 -4 -8
-10 -11 -5 -3 -10 -1 -10 4 0 6 5 11 10 11 6 0 10 -2 10 -4z m-765 -56 c3 -5
1 -10 -4 -10 -6 0 -11 5 -11 10 0 6 2 10 4 10 3 0 8 -4 11 -10z m65 -20 c0 -5
-4 -10 -10 -10 -5 0 -10 5 -10 10 0 6 5 10 10 10 6 0 10 -4 10 -10z m-65 -20
c-3 -5 -11 -10 -16 -10 -6 0 -7 5 -4 10 3 6 11 10 16 10 6 0 7 -4 4 -10z"/>
<path d="M2680 3878 c0 -11 28 -10 35 1 3 6 -4 9 -15 8 -11 -1 -20 -5 -20 -9z"/>
<path d="M2683 3795 c0 -8 4 -12 9 -9 4 3 8 9 8 15 0 5 -4 9 -8 9 -5 0 -9 -7
-9 -15z"/>
<path d="M2000 3683 c-7 -18 -15 -33 -20 -33 -4 0 -10 -9 -13 -20 -3 -11 -3
-20 -1 -20 10 0 55 81 51 92 -3 7 -10 -1 -17 -19z"/>
<path d="M1750 3596 c0 -2 7 -7 16 -10 8 -3 12 -2 9 4 -6 10 -25 14 -25 6z"/>
<path d="M1932 3568 c-14 -14 -16 -42 -3 -34 7 5 23 46 17 46 -1 0 -7 -5 -14
-12z"/>
<path d="M1877 3450 c-3 -11 -2 -20 3 -20 4 0 10 9 13 20 3 11 2 20 -3 20 -4
0 -10 -9 -13 -20z"/>
<path d="M1746 3415 c-3 -8 -1 -15 3 -15 5 0 11 7 15 15 3 8 1 15 -3 15 -5 0
-11 -7 -15 -15z"/>
<path d="M1841 3380 c-12 -22 -17 -40 -11 -40 6 0 14 8 17 18 4 9 13 23 20 30
15 15 17 32 5 32 -5 0 -18 -18 -31 -40z"/>
<path d="M1830 3239 c11 -8 6 -9 -22 -7 -21 2 -38 0 -38 -5 0 -5 -11 -7 -25
-5 -13 3 -22 2 -20 -3 3 -4 -9 -11 -27 -15 -47 -11 -47 -11 -55 -14 -5 -1 -12
-2 -17 -1 -5 1 -4 -5 4 -13 10 -13 10 -16 -3 -16 -8 0 -18 -7 -21 -16 -11 -28
-6 -54 9 -54 8 0 15 -7 15 -16 0 -13 2 -13 21 -1 11 8 29 13 40 10 13 -4 19 0
19 11 0 10 5 13 17 9 11 -4 14 -3 9 5 -4 7 -3 12 3 12 5 0 12 -6 15 -12 5 -10
7 -10 12 0 3 6 12 12 20 12 9 0 12 -4 9 -10 -3 -5 -1 -10 4 -10 6 0 11 4 11 8
0 4 16 8 35 8 19 0 35 -4 35 -9 0 -4 4 -6 9 -2 6 3 14 -2 19 -11 6 -11 17 -15
31 -11 29 7 26 -5 -4 -20 -28 -13 -106 -6 -118 11 -5 6 -6 1 -2 -11 5 -18 1
-24 -20 -29 -19 -5 -24 -11 -20 -25 5 -13 1 -19 -10 -19 -9 0 -14 4 -11 9 8
12 -13 19 -36 13 -9 -2 -14 -10 -12 -17 3 -7 -2 -15 -10 -18 -18 -7 -23 -67
-6 -67 6 0 10 -9 10 -20 0 -13 9 -22 25 -26 14 -3 25 -12 25 -19 0 -8 5 -17
12 -21 7 -5 9 -2 5 8 -6 16 4 17 35 3 10 -4 16 -11 13 -15 -2 -4 18 -10 45
-14 27 -4 52 -10 54 -15 10 -16 98 -24 107 -9 8 11 11 11 18 -1 6 -9 19 -12
42 -7 19 4 44 7 57 6 12 0 25 7 28 15 4 8 13 15 21 15 13 0 13 -3 2 -16 -11
-13 -9 -14 15 -8 15 3 26 2 25 -2 -5 -28 2 -33 28 -23 29 11 46 -2 35 -29 -4
-12 -1 -14 12 -9 10 4 24 7 32 7 8 0 14 5 14 10 0 6 -7 10 -16 10 -13 0 -14 3
-5 13 6 8 8 16 5 20 -10 10 -12 62 -3 80 7 13 6 19 -6 23 -9 4 -14 13 -10 22
3 8 -2 23 -10 32 -9 10 -17 32 -20 49 -2 18 -9 39 -15 46 -7 8 -9 18 -6 23 12
19 -50 72 -109 92 -203 73 -365 117 -325 89z m440 -249 c0 -5 -4 -10 -10 -10
-5 0 -10 5 -10 10 0 6 5 10 10 10 6 0 10 -4 10 -10z m-170 -71 c0 -11 5 -17
10 -14 6 3 10 2 10 -3 0 -11 -24 -22 -48 -22 -12 0 -13 3 -4 12 7 7 12 20 12
30 0 10 5 18 10 18 6 0 10 -9 10 -21z m-219 -6 c13 -16 12 -17 -3 -4 -10 7
-18 15 -18 17 0 8 8 3 21 -13z m386 -65 c-3 -8 -6 -5 -6 6 -1 11 2 17 5 13 3
-3 4 -12 1 -19z"/>
<path d="M2915 3204 c-38 -13 -88 -28 -110 -33 -169 -42 -177 -45 -185 -65 -4
-12 -4 -26 1 -32 5 -6 6 -13 4 -16 -3 -3 -1 -17 5 -32 8 -22 15 -26 44 -24 23
1 32 6 29 15 -3 7 -1 13 5 13 6 0 19 3 29 6 15 5 15 4 3 -5 -12 -9 -11 -11 8
-11 12 0 22 -5 22 -11 0 -5 -5 -7 -10 -4 -11 7 -40 -18 -40 -34 0 -6 -7 -11
-15 -11 -8 0 -15 -4 -15 -10 0 -5 -7 -7 -15 -4 -8 4 -15 15 -15 25 0 10 -6 19
-13 19 -17 0 -49 -34 -41 -43 4 -4 -1 -18 -10 -31 -10 -16 -12 -27 -5 -31 7
-5 6 -11 -2 -21 -15 -18 -6 -29 17 -20 11 4 15 14 12 31 -3 13 -1 22 3 19 5
-3 9 0 9 5 0 17 21 13 36 -6 7 -10 10 -30 7 -46 -6 -27 -5 -28 22 -15 23 10
29 10 33 0 2 -7 10 -19 19 -27 8 -8 11 -15 6 -15 -5 0 -14 5 -20 11 -7 7 -13
8 -17 0 -4 -6 5 -13 21 -17 15 -4 31 -12 35 -18 5 -8 8 -7 8 2 0 6 7 12 15 12
8 0 15 -4 15 -9 0 -14 100 -25 113 -12 6 6 20 11 30 11 12 0 17 5 14 13 -5 13
1 16 41 18 9 1 42 8 72 17 30 9 60 15 66 14 7 -1 14 4 18 13 3 8 14 15 24 15
22 0 46 23 35 33 -3 4 -1 7 5 7 7 0 12 11 12 25 0 17 -6 25 -17 25 -12 0 -14
3 -6 8 9 5 9 11 0 23 -14 19 -70 49 -92 49 -8 0 -15 4 -15 8 0 5 -23 10 -52
11 -29 1 -55 7 -60 13 -5 9 -9 7 -14 -5 -4 -11 -13 -15 -28 -12 -46 11 -85 12
-90 1 -3 -7 -8 -6 -15 4 -9 12 1 19 56 37 37 12 72 19 77 16 5 -3 6 -1 3 5 -5
6 11 12 40 16 64 7 83 5 83 -8 0 -6 4 -6 8 2 7 9 18 7 53 -11 24 -13 56 -27
72 -31 15 -3 37 -16 49 -28 l21 -21 8 22 c9 23 -7 61 -26 61 -5 0 -3 4 5 10
15 9 11 20 -12 24 -27 5 -67 29 -62 37 3 5 -1 6 -9 3 -8 -3 -43 6 -77 20 -77
32 -130 32 -225 0z m-95 -168 c0 -2 -9 -6 -20 -9 -11 -3 -20 -1 -20 4 0 5 9 9
20 9 11 0 20 -2 20 -4z m24 -127 c6 -35 6 -36 -24 -31 -17 2 -33 8 -36 13 -5
9 44 65 50 58 2 -2 6 -20 10 -40z m-164 1 c0 -11 -2 -20 -4 -20 -2 0 -6 9 -9
20 -3 11 -1 20 4 20 5 0 9 -9 9 -20z"/>
<path d="M1556 2991 c-3 -5 1 -11 9 -15 8 -3 15 -1 15 4 0 13 -18 22 -24 11z"/>
<path d="M1521 2884 c0 -11 3 -14 6 -6 3 7 2 16 -1 19 -3 4 -6 -2 -5 -13z"/>
<path d="M2600 2809 c0 -5 5 -7 10 -4 6 3 10 8 10 11 0 2 -4 4 -10 4 -5 0 -10
-5 -10 -11z"/>
<path d="M3008 2783 c7 -3 16 -2 19 1 4 3 -2 6 -13 5 -11 0 -14 -3 -6 -6z"/>
<path d="M2310 2701 c0 -5 5 -13 10 -16 6 -3 10 -2 10 4 0 5 -4 13 -10 16 -5
3 -10 2 -10 -4z"/>
<path d="M2330 2546 c7 -7 13 -7 20 0 6 6 3 10 -10 10 -13 0 -16 -4 -10 -10z"/>
<path d="M2229 2444 c-5 -15 -14 -22 -21 -18 -7 4 -8 3 -4 -4 7 -11 -11 -51
-29 -64 -6 -5 -5 -11 3 -16 7 -5 14 -23 15 -40 1 -18 7 -32 14 -32 8 0 11 14
7 45 l-4 45 49 0 c44 0 49 2 55 26 5 20 1 33 -14 49 -33 35 -59 38 -71 9z m61
-24 c0 -5 -5 -10 -11 -10 -5 0 -7 5 -4 10 3 6 8 10 11 10 2 0 4 -4 4 -10z
m-65 -48 c-3 -3 -11 0 -18 7 -9 10 -8 11 6 5 10 -3 15 -9 12 -12z m62 2 c-3
-3 -12 -4 -19 -1 -8 3 -5 6 6 6 11 1 17 -2 13 -5z"/>
<path d="M2658 2435 c-23 -30 -23 -42 -1 -24 13 11 17 11 20 1 3 -6 10 -9 15
-6 7 4 8 2 4 -4 -4 -6 -14 -9 -24 -6 -14 5 -14 3 2 -10 11 -9 26 -16 33 -16 8
0 13 -12 13 -31 0 -50 25 -29 28 24 2 38 0 47 -13 47 -9 0 -13 5 -10 10 9 14
-13 40 -34 40 -9 0 -24 -11 -33 -25z m39 0 c0 -8 -4 -12 -9 -9 -5 3 -6 10 -3
15 9 13 12 11 12 -6z"/>
<path d="M2320 2380 c0 -5 5 -10 10 -10 6 0 10 5 10 10 0 6 -4 10 -10 10 -5 0
-10 -4 -10 -10z"/>
<path d="M2620 2379 c0 -5 5 -7 10 -4 6 3 10 8 10 11 0 2 -4 4 -10 4 -5 0 -10
-5 -10 -11z"/>
<path d="M2244 2278 c-5 -7 -9 -20 -8 -28 1 -8 2 -23 3 -33 1 -14 6 -17 21
-12 11 3 20 2 20 -2 0 -5 22 -14 49 -19 28 -6 48 -7 45 -2 -5 8 29 13 74 10
12 0 20 3 17 9 -6 9 8 13 33 10 6 -1 12 3 12 9 0 16 28 12 38 -6 6 -11 12 -13
16 -6 4 6 13 9 21 5 9 -3 21 -1 28 5 6 5 28 13 47 17 30 7 32 9 15 16 -19 7
-19 8 -1 8 34 2 10 12 -33 14 -22 2 -41 -1 -41 -5 0 -4 -10 -8 -22 -8 -19 0
-20 2 -8 10 12 8 9 10 -12 10 -17 0 -33 -9 -43 -22 -12 -18 -25 -23 -60 -23
-25 0 -45 3 -45 7 0 5 6 8 13 8 6 0 4 5 -6 11 -10 6 -27 9 -38 6 -10 -3 -17
-1 -13 4 3 5 1 9 -5 9 -5 0 -12 -6 -14 -12 -3 -8 -6 -5 -6 5 -1 12 -5 15 -13
11 -18 -11 -48 -12 -54 -2 -7 12 -20 10 -30 -4z"/>
<path d="M2335 2010 c-11 -4 -37 -5 -59 -4 -22 2 -45 0 -50 -5 -6 -4 -38 -8
-71 -9 -47 -1 -64 -6 -77 -22 -15 -19 -15 -23 -1 -49 9 -15 26 -32 37 -37 13
-6 20 -16 18 -29 -2 -11 -1 -17 3 -13 4 4 18 -7 32 -23 24 -28 26 -29 40 -12
8 10 12 12 8 5 -3 -6 1 -14 9 -17 28 -9 41 -12 51 -14 6 -1 15 -12 22 -24 10
-18 12 -19 13 -4 0 23 23 22 45 -3 16 -18 16 -20 2 -20 -10 0 -17 -4 -17 -10
0 -15 10 -12 46 15 29 22 32 23 27 5 -4 -15 0 -20 16 -20 11 0 21 5 21 10 0 6
5 10 10 10 6 0 10 -6 10 -14 0 -9 7 -12 20 -9 11 3 20 12 20 19 0 8 5 14 11
14 5 0 7 -6 3 -12 -6 -10 -4 -10 7 0 7 6 21 12 31 12 10 0 18 5 18 10 0 6 7
10 15 10 8 0 34 11 57 25 24 14 51 28 61 32 9 3 17 9 17 14 0 5 5 9 10 9 15 0
52 39 69 73 8 15 25 30 38 33 40 11 24 39 -22 40 -22 1 -80 5 -130 10 -104 8
-125 8 -221 0 -39 -4 -81 -3 -95 2 -13 5 -33 6 -44 2z m42 -177 c2 -6 -4 -10
-14 -8 -10 2 -21 4 -25 4 -5 1 -8 5 -8 9 0 13 43 7 47 -5z"/>
<path d="M2120 1768 c0 -9 -5 -19 -10 -21 -6 -3 -5 -4 2 -3 7 2 21 -4 31 -12
10 -9 24 -17 32 -18 20 -3 0 35 -23 43 -9 4 -20 11 -24 17 -5 7 -8 5 -8 -6z"/>
<path d="M2098 1723 c7 -3 16 -2 19 1 4 3 -2 6 -13 5 -11 0 -14 -3 -6 -6z"/>
<path d="M2968 1588 c9 -9 15 -9 24 0 9 9 7 12 -12 12 -19 0 -21 -3 -12 -12z"/>
<path d="M2940 1565 c7 -8 16 -12 21 -9 13 8 1 24 -18 24 -13 0 -13 -3 -3 -15z"/>
<path d="M2920 1551 c0 -5 -12 -11 -27 -13 -17 -2 -28 -9 -28 -18 0 -9 -8 -14
-21 -12 -12 1 -27 -4 -34 -13 -7 -8 -19 -15 -26 -15 -8 0 -13 -6 -11 -12 1 -8
-7 -12 -18 -11 -10 1 -28 -4 -40 -10 -20 -11 -25 -12 -54 -15 -11 -2 -10 -6 5
-17 18 -14 17 -14 -10 -5 -21 8 -31 8 -36 -1 -6 -8 -9 -7 -13 2 -4 9 -6 8 -6
-5 -1 -15 -4 -16 -16 -6 -8 7 -21 10 -30 7 -8 -4 -17 -2 -20 3 -9 14 -25 12
-25 -3 0 -9 -14 -13 -45 -12 -44 2 -78 15 -39 15 13 0 20 7 20 20 0 11 -6 20
-13 20 -7 0 -10 -6 -8 -12 4 -9 -8 -13 -40 -14 -34 -1 -45 2 -45 13 0 12 3 13
14 4 10 -9 15 -8 19 2 3 9 -4 13 -21 12 -15 0 -28 -8 -33 -20 -8 -20 -14 -6
-10 23 2 14 -15 16 -24 2 -3 -5 -13 -10 -21 -10 -8 0 -12 4 -9 10 6 10 -42 26
-51 17 -3 -3 -16 5 -30 18 -26 24 -64 39 -64 25 0 -11 26 -31 33 -24 3 3 14 1
24 -5 12 -7 13 -10 4 -11 -11 0 -11 -3 -1 -15 7 -9 19 -14 26 -11 8 3 13 0 11
-7 -1 -7 8 -11 25 -9 14 2 29 -2 33 -8 5 -9 1 -10 -16 -5 -36 11 -10 -9 31
-25 19 -7 49 -18 65 -25 17 -8 80 -16 140 -19 124 -5 201 9 266 50 21 13 43
24 49 24 5 0 10 5 10 10 0 6 7 10 15 10 8 0 15 4 15 9 0 5 20 22 45 38 46 29
61 48 45 58 -6 4 -10 2 -10 -4z"/>
<path d="M2468 1413 c6 -2 18 -2 25 0 6 3 1 5 -13 5 -14 0 -19 -2 -12 -5z"/>
<path d="M2475 978 c-49 -37 -140 -130 -176 -179 -19 -25 -53 -70 -77 -98 -23
-29 -39 -58 -35 -64 4 -6 0 -8 -10 -4 -10 3 -17 4 -17 1 0 -12 52 -23 68 -15
22 12 53 23 72 26 43 7 81 32 72 49 -3 6 9 -1 27 -13 37 -26 49 -50 33 -60 -6
-4 -26 -39 -45 -79 -18 -40 -36 -69 -40 -66 -4 4 -7 -4 -8 -17 -1 -30 -5 -65
-14 -104 -4 -16 -6 -40 -6 -52 0 -12 -3 -24 -8 -28 -5 -3 -12 -49 -15 -103 -4
-53 -9 -112 -12 -129 l-5 -33 276 0 c213 0 275 3 275 13 0 6 -4 50 -9 97 -5
47 -12 114 -16 150 -3 36 -7 74 -8 85 -1 11 -9 28 -17 38 -8 10 -15 21 -16 25
0 4 -17 42 -37 85 -21 43 -37 84 -37 92 0 8 -8 19 -17 24 -15 9 -14 10 9 9 15
-1 24 -6 22 -10 -3 -4 2 -8 10 -8 9 0 16 -5 16 -11 0 -5 5 -7 10 -4 6 3 10 2
10 -3 0 -5 17 -14 38 -21 94 -31 90 -31 106 -6 14 21 12 27 -52 116 -37 52
-76 108 -86 124 -11 17 -50 61 -87 98 -51 52 -76 69 -103 74 -20 3 -39 10 -42
14 -8 14 -17 11 -49 -13z"/>
<path d="M2351 524 c0 -11 3 -14 6 -6 3 7 2 16 -1 19 -3 4 -6 -2 -5 -13z"/>
</g>
</svg>
